<?xml version="1.0" standalone="no"?>
<!DOCTYPE svg PUBLIC "-//W3C//DTD SVG 20010904//EN"
 "http://www.w3.org/TR/2001/REC-SVG-20010904/DTD/svg10.dtd">
<svg version="1.0" xmlns="http://www.w3.org/2000/svg"
 width="612.000000pt" height="612.000000pt" viewBox="0 0 612.000000 612.000000"
 preserveAspectRatio="xMidYMid meet">
<metadata>
Created by potrace 1.16, written by Peter Selinger 2001-2019
</metadata>
<g transform="translate(0.000000,612.000000) scale(0.100000,-0.100000)"
fill="#000000" stroke="none">
<path d="M2938 5490 c-222 -35 -392 -126 -576 -306 l-97 -95 -142 12 c-122 11
-157 11 -256 -3 -229 -33 -368 -99 -519 -250 -88 -88 -102 -107 -152 -210 -30
-62 -64 -151 -75 -197 -26 -105 -45 -295 -38 -373 5 -59 5 -59 -36 -96 -271
-240 -398 -494 -422 -842 -12 -169 23 -383 90 -541 61 -145 201 -333 320 -429
l56 -45 -6 -55 c-9 -76 10 -278 36 -380 11 -47 45 -137 76 -200 50 -103 64
-123 147 -205 133 -133 262 -203 437 -239 122 -24 227 -29 361 -16 l126 12 58
-62 c216 -230 460 -344 734 -344 263 0 479 96 700 312 l95 93 132 -12 c272
-25 515 33 691 166 211 159 325 382 353 693 6 70 9 151 6 182 l-6 55 70 60
c314 267 455 694 373 1128 -48 253 -187 485 -397 665 l-39 33 -3 138 c-10 425
-168 711 -480 869 -161 82 -343 112 -564 93 l-136 -12 -96 94 c-206 202 -418
301 -664 312 -55 2 -126 0 -157 -5z m36 -344 l7 -209 -52 6 c-28 4 -53 8 -54
9 -6 6 -54 483 -49 487 2 2 32 10 67 16 l62 11 6 -55 c4 -31 10 -150 13 -265z
m152 102 c-4 -123 -9 -242 -12 -265 l-5 -43 -50 0 c-40 0 -49 3 -50 18 0 9 -2
24 -3 32 -2 8 -6 120 -10 248 l-8 232 72 0 72 0 -6 -222z m159 196 c13 -5 15
-15 11 -43 -3 -20 -15 -128 -27 -241 -12 -113 -22 -206 -23 -207 -1 -1 -25 -5
-55 -9 l-53 -7 6 179 c4 98 9 217 12 263 l6 84 53 -7 c29 -3 61 -9 70 -12z
m-485 -41 c0 -16 11 -122 23 -237 l23 -208 -50 6 c-27 3 -53 9 -57 13 -4 5
-21 87 -38 183 -17 96 -34 185 -36 196 -4 19 4 26 58 47 78 33 77 33 77 0z
m611 -5 c37 -16 45 -23 43 -41 -19 -121 -67 -373 -72 -379 -4 -4 -30 -10 -57
-13 l-51 -7 22 208 c13 115 23 222 23 237 1 32 6 32 92 -5z m-753 -150 c36
-196 44 -249 39 -254 -3 -3 -30 -1 -59 5 l-54 12 -32 132 c-18 73 -32 135 -32
140 0 7 99 76 111 76 4 1 16 -50 27 -111z m887 77 c30 -20 55 -39 55 -43 0 -4
-14 -66 -32 -138 l-32 -132 -53 -12 c-29 -7 -56 -10 -59 -7 -4 3 -1 37 5 74
26 150 53 293 57 293 2 0 28 -16 59 -35z m-1022 -177 c15 -62 27 -116 27 -119
0 -6 -238 46 -246 54 -5 5 173 177 184 177 4 0 20 -51 35 -112z m1207 25 c50
-47 88 -88 86 -91 -8 -8 -246 -59 -246 -53 -1 22 56 231 62 231 5 0 49 -39 98
-87z m-1734 -198 c86 -157 81 -140 48 -187 -36 -52 -45 -55 -65 -20 -9 15 -54
85 -99 156 -45 70 -78 132 -73 136 9 10 64 18 106 16 26 -1 35 -12 83 -101z
m181 96 c29 -4 55 -10 58 -13 3 -3 -27 -49 -67 -102 -56 -73 -75 -93 -84 -83
-7 6 -35 56 -64 110 l-52 97 79 -1 c43 0 102 -4 130 -8z m1922 -88 c-28 -54
-57 -104 -63 -110 -9 -10 -28 10 -84 83 -40 53 -70 99 -67 102 10 10 94 19
183 21 l83 1 -52 -97z m169 88 c23 -5 45 -11 48 -14 3 -3 -41 -77 -97 -166
l-103 -161 -33 47 c-18 26 -33 50 -33 54 0 4 30 62 66 128 72 131 67 128 152
112z m-2395 -186 c59 -91 107 -170 107 -176 0 -6 -14 -29 -31 -50 l-31 -39
-18 23 c-93 118 -268 362 -264 369 6 9 90 36 115 37 10 1 56 -62 122 -164z
m696 106 c453 -110 540 -109 1022 8 92 23 187 44 212 47 l45 6 103 -140 c57
-77 131 -178 164 -223 77 -106 219 -251 316 -322 42 -31 159 -106 260 -168
101 -61 213 -132 248 -158 l65 -47 -3 -54 c-1 -30 -20 -179 -42 -330 -32 -216
-42 -317 -46 -470 -6 -219 1 -315 52 -675 51 -367 52 -329 -9 -375 -28 -21
-141 -93 -251 -160 -110 -67 -234 -147 -275 -177 -105 -78 -242 -220 -330
-342 -237 -328 -248 -341 -277 -341 -16 0 -118 22 -228 49 -343 84 -354 86
-535 85 -183 0 -204 -3 -531 -83 -113 -28 -218 -51 -233 -51 -28 0 -29 1 -283
350 -87 119 -237 273 -335 342 -36 26 -155 102 -264 169 -110 66 -222 138
-250 159 -61 46 -60 8 -9 375 46 328 55 423 55 595 0 174 -9 272 -55 595 -18
132 -36 262 -38 288 l-5 48 56 42 c31 22 153 101 272 173 317 196 422 287 580
504 234 322 249 340 276 340 14 0 137 -27 273 -59z m1886 33 l36 -15 -38 -53
c-21 -29 -85 -116 -143 -194 l-105 -142 -32 37 c-18 21 -33 43 -33 50 0 6 48
87 106 178 l107 167 33 -7 c19 -3 50 -13 69 -21z m-2793 -107 c30 -39 96 -128
146 -196 l92 -125 -37 -38 c-36 -37 -38 -38 -53 -19 -13 16 -71 84 -282 329
-26 30 -45 59 -42 64 9 14 107 67 115 62 4 -2 32 -37 61 -77z m2966 19 c10 -9
-24 -54 -159 -211 -94 -110 -172 -201 -173 -202 -1 -2 -19 15 -40 36 l-37 38
151 202 151 202 47 -27 c26 -14 53 -32 60 -38z m-2999 -225 c94 -110 171 -204
171 -210 0 -5 -17 -23 -37 -40 l-38 -31 -39 42 c-22 24 -107 111 -189 195
l-150 152 49 45 c27 25 52 45 55 46 3 0 83 -90 178 -199z m3093 152 l46 -48
-188 -193 -188 -193 -36 31 c-20 18 -36 36 -36 42 0 11 339 408 349 408 4 0
28 -21 53 -47z m-3205 -255 c101 -101 183 -188 183 -194 0 -6 -18 -23 -41 -38
l-40 -27 -37 32 c-240 211 -332 294 -332 303 1 14 68 106 77 106 5 0 90 -82
190 -182z m3317 133 c20 -27 36 -53 36 -58 0 -7 -219 -207 -337 -306 l-33 -28
-40 28 c-22 15 -40 32 -40 38 0 11 361 375 372 375 3 0 22 -22 42 -49z m-3583
-104 c9 -7 49 -41 90 -77 281 -249 265 -226 192 -267 l-38 -21 -81 61 c-45 34
-118 90 -163 125 l-81 63 16 37 c9 20 21 49 27 65 13 30 15 31 38 14z m3672
-49 c14 -35 23 -66 21 -69 -2 -4 -76 -61 -164 -128 l-160 -122 -45 31 c-25 17
-45 33 -45 35 0 7 352 315 360 315 4 0 19 -28 33 -62z m-3555 -252 c112 -87
110 -77 30 -125 l-36 -22 -117 77 -117 77 6 41 c4 23 11 56 17 73 l11 33 52
-38 c28 -20 98 -73 154 -116z m3608 93 c7 -30 14 -61 14 -71 0 -10 -44 -46
-116 -92 l-116 -77 -36 22 c-80 49 -85 37 50 139 68 52 136 104 152 117 16 13
30 22 33 19 2 -2 11 -28 19 -57z m-3745 -185 c55 -36 97 -69 93 -73 -14 -13
-206 -141 -210 -141 -6 0 -5 183 2 234 4 25 8 46 10 46 2 0 49 -30 105 -66z
m3773 20 c9 -66 8 -236 -2 -232 -4 2 -54 34 -110 72 -62 41 -100 72 -94 78 12
12 185 126 193 127 4 1 9 -20 13 -45z m-3900 -438 c9 -66 14 -121 13 -121 -8
-5 -217 68 -217 76 0 18 184 195 187 179 1 -8 9 -69 17 -134z m4081 -1 c32
-37 54 -70 49 -74 -12 -12 -225 -74 -231 -68 -2 3 3 63 11 134 9 71 16 135 16
142 0 18 87 -57 155 -134z m-4180 -114 l120 -38 11 -72 c9 -63 9 -71 -5 -71
-38 1 -335 76 -338 86 -4 12 73 134 84 134 5 0 62 -18 128 -39z m4304 -51 c24
-39 41 -73 39 -75 -7 -7 -370 -86 -375 -81 -3 3 16 139 20 142 3 2 261 82 267
83 3 1 25 -31 49 -69z m-4339 -121 c96 -23 176 -43 178 -44 5 -4 23 -137 19
-141 -3 -3 -458 64 -463 68 -1 2 11 38 28 81 20 53 35 77 46 77 9 0 96 -18
192 -41z m4403 4 c3 -10 17 -48 31 -84 l25 -67 -32 -6 c-56 -10 -409 -56 -429
-56 -18 0 -19 5 -13 68 4 37 8 68 10 70 2 2 379 89 396 91 4 1 9 -7 12 -16z
m-4431 -185 l226 -33 6 -29 c3 -15 6 -48 6 -72 0 -35 -3 -44 -17 -44 -10 0
-119 7 -243 15 -124 8 -233 15 -242 15 -22 0 -23 20 -2 111 8 38 21 69 27 69
7 0 114 -14 239 -32z m4507 -55 c18 -89 15 -120 -11 -126 -13 -3 -125 -9 -250
-13 -126 -3 -231 -7 -235 -8 -5 0 -9 29 -11 67 -2 53 0 68 13 73 19 8 408 62
451 63 30 1 32 -1 43 -56z m-4544 -133 c77 -5 171 -10 208 -12 l68 -3 -3 -95
-3 -95 -205 -12 c-113 -6 -231 -12 -262 -12 l-58 -1 0 120 0 120 58 0 c31 0
120 -4 197 -10z m4565 -111 l0 -92 -127 7 c-71 3 -190 9 -265 12 l-138 7 0 68
0 69 63 1 c34 1 123 5 197 8 74 4 165 8 203 9 l67 2 0 -91z m-290 -104 c113
-3 222 -8 243 -11 34 -5 37 -8 37 -38 0 -18 -5 -59 -12 -91 l-11 -57 -51 5
c-131 15 -428 57 -437 62 -5 4 -9 38 -9 76 0 62 2 70 18 65 9 -2 109 -7 222
-11z m-4000 -67 c0 -99 18 -89 -246 -127 -129 -19 -236 -32 -239 -29 -9 9 -40
166 -34 172 5 5 365 31 477 35 l42 1 0 -52z m4023 -127 c114 -16 211 -32 215
-35 8 -9 -37 -143 -52 -155 -9 -6 -393 71 -401 81 -2 2 -6 33 -10 71 -8 81
-35 77 248 38z m-4038 -38 c-14 -108 5 -94 -193 -141 -97 -23 -184 -42 -193
-42 -11 0 -27 25 -48 77 -17 42 -29 78 -27 80 3 3 420 69 454 72 10 1 12 -11
7 -46z m4000 -144 c99 -22 181 -42 183 -44 7 -7 -83 -145 -93 -142 -5 2 -67
21 -137 43 -122 37 -127 39 -132 69 -15 92 -17 115 -10 115 5 0 89 -18 189
-41z m-4029 -60 l-11 -72 -120 -38 c-66 -21 -123 -39 -128 -39 -11 0 -88 122
-84 134 3 10 290 83 333 85 20 1 20 -1 10 -70z m3974 -108 c119 -36 130 -41
130 -53 0 -10 -199 -212 -205 -207 -3 4 -35 257 -35 279 0 14 3 13 110 -19z
m-4007 -129 l-16 -131 -59 51 c-63 54 -134 135 -126 143 6 6 212 74 215 71 1
-1 -5 -61 -14 -134z m113 -259 c55 -36 103 -69 107 -73 5 -4 -37 -38 -93 -75
-56 -36 -104 -64 -108 -61 -7 8 -16 276 -9 276 3 0 49 -30 103 -67z m3792 -67
c-2 -74 -6 -138 -10 -141 -3 -3 -52 24 -109 61 -95 62 -102 68 -84 80 11 7 58
40 105 73 47 32 89 59 94 60 4 1 7 -59 4 -133z m-3589 -60 l53 -33 -78 -60
c-44 -32 -112 -85 -153 -116 -41 -31 -76 -55 -78 -53 -7 6 -33 109 -33 128 0
11 42 45 113 92 61 41 114 75 117 75 3 0 29 -15 59 -33z m3457 -43 l116 -77
-6 -36 c-12 -72 -27 -111 -39 -103 -7 5 -77 57 -156 117 l-144 109 54 33 c30
18 55 34 57 34 1 0 54 -35 118 -77z m-3330 -33 c24 -17 44 -33 44 -35 0 -7
-352 -315 -360 -315 -4 0 -19 28 -33 63 -20 48 -23 65 -13 74 13 14 309 242
314 243 2 0 23 -14 48 -30z m3258 -108 c75 -57 138 -106 140 -110 5 -9 -45
-132 -54 -132 -8 0 -346 295 -355 310 -3 5 16 23 42 39 45 28 48 29 69 13 12
-9 83 -63 158 -120z m-3143 31 c21 -16 39 -33 39 -38 0 -18 -367 -378 -379
-371 -17 11 -73 96 -69 106 3 9 359 329 366 330 2 0 21 -12 43 -27z m3025
-135 c101 -89 184 -166 184 -171 0 -12 -70 -107 -78 -107 -11 0 -372 364 -372
375 0 8 67 63 78 65 2 0 86 -73 188 -162z m-59 -159 l144 -146 -40 -39 c-23
-21 -48 -42 -55 -46 -11 -6 -60 45 -185 192 -94 110 -171 204 -171 209 0 5 16
23 36 40 l36 32 46 -48 c25 -26 110 -114 189 -194z m-2858 205 c17 -14 31 -30
31 -35 0 -5 -77 -99 -171 -209 -189 -220 -175 -212 -241 -143 l-36 38 181 187
c100 103 187 188 194 188 6 0 25 -12 42 -26z m-19 -333 l-151 -202 -47 27
c-26 14 -53 32 -59 38 -10 9 25 56 160 213 l172 202 39 -38 38 -39 -152 -201z
m2719 75 c122 -142 168 -202 161 -211 -5 -6 -32 -24 -59 -39 l-50 -27 -25 33
c-14 18 -82 109 -152 202 l-125 169 37 38 c21 21 39 38 40 36 1 -1 79 -92 173
-201z m-2489 17 c0 -19 -210 -343 -223 -343 -29 0 -127 34 -124 43 2 6 66 95
143 198 l139 189 32 -38 c18 -20 33 -43 33 -49z m2379 -122 c72 -96 128 -178
125 -182 -5 -9 -99 -39 -120 -39 -13 0 -224 323 -224 343 0 7 14 30 32 51 30
37 33 38 45 20 7 -11 71 -98 142 -193z m-134 -70 c100 -158 103 -170 50 -171
-11 0 -36 -3 -56 -6 l-36 -6 -66 121 c-37 67 -67 125 -67 128 0 16 64 103 70
96 4 -4 51 -77 105 -162z m-2186 120 c17 -21 31 -44 31 -49 0 -6 -30 -66 -66
-132 l-67 -122 -61 7 c-33 4 -65 11 -69 15 -9 8 181 319 195 320 3 0 20 -18
37 -39z m135 -185 c37 -48 65 -91 62 -94 -10 -10 -107 -20 -189 -21 l-78 -1
52 98 c60 112 70 126 79 115 4 -4 37 -48 74 -97z m1925 -18 l52 -98 -78 1
c-82 0 -179 11 -188 21 -3 3 27 49 67 102 56 73 75 93 84 83 6 -6 35 -56 63
-109z m-1123 -140 c-4 -101 -9 -220 -12 -264 l-6 -81 -64 12 c-35 6 -66 14
-69 16 -2 3 7 106 20 229 14 124 25 233 25 242 0 17 21 24 79 27 l33 1 -6
-182z m138 130 c3 -29 8 -149 12 -265 l6 -213 -72 0 -72 0 7 223 c3 122 8 241
11 265 l5 42 49 0 49 0 5 -52z m131 40 c2 -2 12 -95 24 -208 12 -113 24 -221
27 -241 6 -42 1 -46 -81 -55 l-53 -7 -6 74 c-3 41 -8 159 -11 263 l-6 189 52
-6 c28 -4 53 -8 54 -9z m-405 -30 c0 -13 -10 -119 -22 -236 -25 -240 -13 -221
-110 -180 -40 17 -47 24 -43 42 3 11 19 100 36 196 17 96 33 178 37 182 8 7
43 14 80 17 17 1 22 -4 22 -21z m542 4 c4 -4 20 -86 37 -182 17 -96 33 -185
36 -196 4 -19 -4 -26 -61 -48 -37 -15 -68 -26 -69 -24 -4 5 -45 409 -45 442 0
28 0 28 48 21 26 -4 50 -10 54 -13z m-682 -24 c0 -18 -61 -352 -65 -356 -5 -6
-115 67 -115 75 0 5 14 67 31 140 l32 132 41 10 c59 13 76 13 76 -1z m788 1
l49 -12 31 -126 c18 -70 32 -132 32 -138 0 -11 -108 -88 -115 -81 -4 4 -65
337 -65 356 0 15 6 15 68 1z m-964 -143 c-15 -64 -32 -116 -36 -116 -5 0 -49
39 -99 87 -76 73 -88 89 -72 95 27 10 227 56 232 52 2 -2 -9 -55 -25 -118z
m1286 68 c10 -4 -14 -33 -76 -95 -50 -49 -95 -89 -100 -89 -8 0 -65 207 -64
231 0 5 199 -35 240 -47z"/>
<path d="M2400 3136 l0 -854 21 -5 c31 -8 1116 -9 1194 -1 l65 7 0 98 0 99
-525 0 -525 0 0 290 0 290 475 0 475 0 0 100 c0 73 -3 100 -12 101 -7 1 -20 3
-28 4 -8 1 -216 3 -462 4 l-448 1 0 260 0 260 505 0 505 0 0 100 0 100 -620 0
-620 0 0 -854z"/>
</g>
</svg>
